<svg xmlns="http://www.w3.org/2000/svg" width="1920" height="1080" viewBox="0 0 1920 1080">
  <defs>
    <linearGradient id="sky" x1="0" y1="0" x2="0" y2="1">
      <stop offset="0" stop-color="#667f6f"/>
      <stop offset="0.55" stop-color="#28473b"/>
      <stop offset="1" stop-color="#12251e"/>
    </linearGradient>
    <radialGradient id="mist" cx="72%" cy="28%" r="52%">
      <stop offset="0" stop-color="#dce7de" stop-opacity=".46"/>
      <stop offset=".46" stop-color="#9fb6a7" stop-opacity=".16"/>
      <stop offset="1" stop-color="#183127" stop-opacity="0"/>
    </radialGradient>
    <filter id="blur">
      <feGaussianBlur stdDeviation="18"/>
    </filter>
  </defs>
  <rect width="1920" height="1080" fill="url(#sky)"/>
  <rect width="1920" height="1080" fill="url(#mist)"/>

  <path d="M0 650 C220 540 370 610 560 520 C790 410 990 560 1200 430 C1450 275 1675 355 1920 230 L1920 1080 L0 1080 Z" fill="#284638" opacity=".72"/>
  <path d="M0 745 C230 650 420 720 640 615 C820 530 1030 665 1230 555 C1475 420 1680 485 1920 390 L1920 1080 L0 1080 Z" fill="#1d372d"/>
  <path d="M0 835 C190 770 410 800 620 730 C860 650 1080 800 1305 695 C1490 610 1700 620 1920 535 L1920 1080 L0 1080 Z" fill="#132a22"/>

  <g fill="#0d211a">
    <path d="M90 0 H210 L190 650 H122 Z"/>
    <path d="M420 0 H505 L530 590 H450 Z"/>
    <path d="M1600 0 H1728 L1665 720 H1584 Z"/>
    <path d="M1820 0 H1910 L1885 675 H1790 Z"/>
  </g>

  <g fill="none" stroke="#183329" stroke-width="18" stroke-linecap="round" opacity=".95">
    <path d="M155 300 C95 240 58 188 20 122"/>
    <path d="M165 245 C230 190 275 150 314 95"/>
    <path d="M468 250 C415 190 370 145 324 110"/>
    <path d="M1660 250 C1580 194 1510 130 1460 68"/>
    <path d="M1650 355 C1735 275 1792 205 1846 120"/>
  </g>

  <g fill="#254a3a" opacity=".9">
    <circle cx="62" cy="118" r="82"/>
    <circle cx="275" cy="96" r="100"/>
    <circle cx="350" cy="60" r="88"/>
    <circle cx="1440" cy="90" r="110"/>
    <circle cx="1820" cy="112" r="120"/>
  </g>

  <g filter="url(#blur)" opacity=".25" fill="#dfe9e2">
    <ellipse cx="1375" cy="335" rx="360" ry="120"/>
    <ellipse cx="965" cy="520" rx="330" ry="95"/>
  </g>

  <g fill="none" stroke="#6f917d" stroke-width="3" opacity=".35">
    <path d="M900 845 C820 900 770 970 720 1080"/>
    <path d="M940 845 C1010 930 1070 990 1120 1080"/>
    <path d="M990 860 C940 930 910 1000 890 1080"/>
    <path d="M1040 830 C1140 920 1240 1000 1300 1080"/>
    <path d="M835 860 C770 910 690 950 610 985"/>
  </g>
</svg>
